<?xml version="1.0" standalone="no"?>
<!DOCTYPE svg PUBLIC "-//W3C//DTD SVG 20010904//EN"
 "http://www.w3.org/TR/2001/REC-SVG-20010904/DTD/svg10.dtd">
<svg version="1.0" xmlns="http://www.w3.org/2000/svg"
 width="225.000000pt" height="225.000000pt" viewBox="0 0 225.000000 225.000000"
 preserveAspectRatio="xMidYMid meet">
<metadata>
Created by potrace 1.10, written by Peter Selinger 2001-2011
</metadata>
<g transform="translate(0.000000,225.000000) scale(0.100000,-0.100000)"
fill="#000000" stroke="none">
<path d="M824 2240 c-12 -5 -29 -19 -38 -32 -51 -73 35 -161 115 -117 16 8 26
7 46 -6 26 -17 66 -96 78 -151 5 -28 3 -32 -22 -37 -74 -15 -179 -122 -203
-205 -24 -86 -5 -233 39 -308 24 -41 33 -36 -119 -58 -346 -49 -560 -157 -638
-323 -23 -48 -27 -71 -26 -138 0 -96 22 -151 86 -221 129 -141 338 -138 494 8
l30 28 12 -99 c22 -187 93 -356 192 -458 83 -85 149 -115 260 -114 122 0 225
65 309 195 74 113 131 294 131 416 0 52 8 61 31 34 25 -30 99 -75 156 -95 160
-55 332 15 408 168 25 50 30 70 30 138 0 67 -4 89 -27 135 -86 173 -298 279
-663 330 -136 18 -126 10 -93 77 35 72 52 185 38 249 -24 106 -83 180 -180
227 l-67 33 18 61 c23 74 70 128 103 118 12 -4 38 -9 58 -12 91 -12 126 125
40 155 -16 5 -41 8 -56 5 -30 -6 -66 -46 -66 -74 0 -10 -9 -20 -19 -24 -11 -3
-35 -23 -54 -45 -31 -33 -46 -68 -73 -167 -2 -7 -19 -13 -38 -13 -31 0 -36 4
-42 28 -15 73 -40 120 -85 165 -27 26 -49 55 -49 65 0 41 -73 80 -116 62z m56
-42 c35 -38 22 -78 -25 -78 -15 0 -45 27 -45 39 0 9 39 61 45 61 2 0 13 -10
25 -22z m541 -10 c21 -40 -10 -74 -57 -62 -30 8 -32 42 -4 72 22 24 45 20 61
-10z m-184 -348 c101 -44 163 -137 163 -244 0 -75 -26 -169 -56 -201 l-23 -25
-48 22 c-71 32 -217 37 -297 10 -33 -11 -65 -18 -72 -15 -34 13 -70 153 -61
239 19 183 219 292 394 214z m-38 -479 c19 -5 34 -31 76 -126 28 -66 60 -135
69 -154 17 -33 17 -34 0 -27 -100 39 -286 44 -402 12 -43 -12 -53 -12 -49 -1
36 93 124 283 136 293 16 13 128 15 170 3z m-228 -23 c-5 -13 -30 -72 -56
-133 -26 -60 -47 -124 -47 -141 1 -23 -8 -42 -31 -66 -36 -39 -143 -232 -149
-268 -2 -13 -11 -24 -21 -26 -10 -1 -49 -23 -85 -47 -128 -85 -225 -99 -331
-46 -145 73 -201 249 -125 390 78 143 252 228 582 283 108 18 148 28 165 44
19 18 37 23 94 31 9 1 10 -6 4 -21z m399 -13 c13 -12 67 -26 162 -41 272 -46
427 -105 525 -200 71 -70 97 -129 98 -219 0 -87 -28 -148 -97 -210 -112 -101
-258 -99 -406 4 -32 23 -66 41 -75 41 -11 0 -17 8 -17 23 0 12 -9 36 -21 52
-11 17 -38 64 -59 106 -21 42 -55 94 -75 115 -27 29 -35 44 -30 61 4 16 -12
63 -50 149 -30 68 -55 128 -55 132 0 15 81 4 100 -13z m-69 -314 c76 -24 95
-42 139 -131 18 -36 42 -78 55 -95 17 -24 42 -125 30 -125 -2 0 -26 16 -55 35
-28 19 -88 47 -133 62 -75 25 -95 27 -232 27 -139 0 -155 -2 -219 -27 -37 -15
-90 -43 -117 -63 l-49 -36 0 42 c0 25 8 53 19 68 10 15 39 68 65 118 27 53 56
95 69 102 109 53 297 63 428 23z m-32 -291 c84 -20 171 -61 224 -103 26 -22
27 -25 17 -77 -6 -29 -15 -70 -20 -91 l-10 -38 -73 34 c-196 93 -393 93 -572
1 -33 -17 -63 -32 -66 -34 -4 -1 -14 36 -24 83 l-18 86 39 40 c104 106 306
146 503 99z m-28 -271 c56 -12 160 -54 199 -80 l23 -15 -34 -64 c-47 -89 -136
-182 -200 -210 -69 -29 -151 -29 -215 2 -68 31 -152 119 -197 205 l-38 72 63
32 c35 18 90 40 123 50 70 20 200 24 276 8z"/>
</g>
</svg>
